<svg width="21" height="24" viewBox="0 0 21 24" fill="none" xmlns="http://www.w3.org/2000/svg">
<path d="M17.0831 12.6832C17.0716 10.7159 17.9629 9.2333 19.7628 8.14007C18.7561 6.69782 17.2331 5.90458 15.2255 5.7517C13.3246 5.60171 11.2449 6.85935 10.4834 6.85935C9.67859 6.85935 7.83828 5.80362 6.39026 5.80362C3.40191 5.84977 0.226074 8.18622 0.226074 12.9399C0.226074 14.3446 0.482795 15.7955 0.996237 17.2897C1.68275 19.2569 4.15765 24.0769 6.73928 23.9991C8.08923 23.9673 9.044 23.0414 10.8007 23.0414C12.5054 23.0414 13.3881 23.9991 14.8938 23.9991C17.4985 23.9616 19.7369 19.58 20.3888 17.607C16.8956 15.96 17.0831 12.7841 17.0831 12.6832ZM14.0515 3.88543C15.5139 2.14895 15.3813 0.568247 15.338 0C14.0457 0.0749971 12.5516 0.879774 11.7006 1.86916C10.7632 2.93066 10.2122 4.2431 10.3305 5.72285C11.7266 5.82958 13.0015 5.11134 14.0515 3.88543Z" fill="#D9D9D9"/>
</svg>
