<svg width="123" height="52" viewBox="0 0 123 52" fill="none" xmlns="http://www.w3.org/2000/svg">
<g clip-path="url(#clip0_80_69)">
<path d="M7.95245 43.4855V35.5809H0V51.9999H15.9518V43.7689H8.24117L7.95273 43.7686L7.95245 43.4855Z" fill="#6CB546"/>
<path d="M7.95245 8.51446V16.4193H0V0H15.9518V8.23135H8.24117H7.95273L7.95245 8.51446Z" fill="#FFE000"/>
<path d="M39.9002 8.51446V16.4193H47.8529V0H31.9009V8.23135H39.6118H39.9002V8.51446Z" fill="#00B7FF"/>
<path d="M39.9002 43.4855V35.5809H47.8529V51.9999H31.9009V43.7689H39.6118L39.9002 43.7686V43.4855Z" fill="#FC1515"/>
<path d="M23.8795 13.7615C22.0542 13.7587 20.2483 14.146 18.5763 14.8991V10.9713H10.6489V27.4634C10.6489 27.446 10.6498 27.4289 10.6499 27.4115C10.6575 30.1017 11.4399 32.7293 12.8983 34.9624C14.3567 37.1955 16.4258 38.9338 18.844 39.9579C21.2623 40.9819 23.9214 41.2458 26.4853 40.7161C29.0493 40.1864 31.4032 38.8869 33.2496 36.9818C35.0961 35.0767 36.3523 32.6514 36.8596 30.0122C37.3669 27.3731 37.1025 24.6384 36.0998 22.1538C35.0972 19.6691 33.4012 17.5458 31.2262 16.0521C29.0512 14.5584 26.4946 13.7613 23.8795 13.7615ZM29.1685 27.7648C29.1659 27.8082 29.1624 27.8517 29.1579 27.8951C29.1544 27.9386 29.15 27.982 29.1448 28.0254C29.1404 28.0689 29.1342 28.1123 29.128 28.1558C29.1175 28.2354 29.1043 28.3151 29.0893 28.3947C29.0797 28.4436 29.07 28.4933 29.0594 28.5431C29.0418 28.6291 29.0216 28.7142 28.9987 28.7983C28.9908 28.8327 28.9811 28.8671 28.9714 28.9015C28.9662 28.9169 28.9618 28.9323 28.9574 28.9486C28.9477 28.983 28.9371 29.0173 28.9257 29.0517C28.9151 29.087 28.9037 29.1223 28.8923 29.1567C28.8747 29.2083 28.8562 29.2608 28.8369 29.3133C28.8228 29.3513 28.8087 29.3884 28.7937 29.4255C28.7788 29.4653 28.7621 29.5042 28.7454 29.5432C28.7339 29.5712 28.7225 29.5984 28.7093 29.6264C28.6943 29.6617 28.6785 29.697 28.6618 29.7323C28.6607 29.7363 28.659 29.7399 28.6565 29.7432C28.6398 29.7794 28.6222 29.8156 28.6037 29.8518C28.6031 29.8543 28.6022 29.8567 28.6011 29.859C28.5835 29.8934 28.5659 29.9278 28.5474 29.9622C28.5254 30.0065 28.5017 30.05 28.4761 30.0934C28.4568 30.1296 28.4357 30.1658 28.4146 30.2011C28.3943 30.2346 28.375 30.2681 28.3539 30.3016C28.3257 30.3477 28.2967 30.393 28.2659 30.4382C28.2483 30.4654 28.2307 30.4925 28.2122 30.5188C28.2061 30.5278 28.1999 30.5369 28.1929 30.5459C28.1718 30.5767 28.1507 30.6065 28.1287 30.6364C28.1032 30.6717 28.0776 30.7061 28.0512 30.7405C28.0257 30.7749 27.9985 30.8093 27.9712 30.8428C27.9439 30.8762 27.9166 30.9097 27.8894 30.9423C27.8067 31.041 27.7199 31.1369 27.629 31.2301C27.5384 31.3233 27.4451 31.412 27.3501 31.4971C27.3175 31.526 27.285 31.5541 27.2524 31.5821C27.2199 31.6102 27.1865 31.6374 27.153 31.6645C27.1249 31.6871 27.0967 31.7098 27.0677 31.7324C27.0598 31.7387 27.051 31.745 27.043 31.7514C27.0123 31.7749 26.9806 31.7985 26.9489 31.8211C26.9181 31.8437 26.8865 31.8663 26.8539 31.889C26.8161 31.917 26.7774 31.9433 26.7378 31.9677C26.6304 32.0392 26.5196 32.1062 26.407 32.1686C26.37 32.1894 26.3331 32.2102 26.2953 32.2302C26.2945 32.231 26.2935 32.2317 26.2925 32.2322C26.2914 32.2327 26.2903 32.2329 26.2891 32.2329C26.2539 32.251 26.2196 32.2691 26.1835 32.2872C26.1805 32.289 26.1773 32.2906 26.1739 32.2917C26.1369 32.3098 26.0991 32.3279 26.0621 32.3451C26.0225 32.3641 25.983 32.3813 25.9434 32.3985C25.9064 32.4148 25.8686 32.4311 25.8308 32.4465C25.8264 32.4483 25.822 32.4501 25.8167 32.4519C25.7789 32.4673 25.741 32.4817 25.7023 32.4962C25.6619 32.5116 25.6214 32.5261 25.5801 32.5406C25.5378 32.556 25.4956 32.5695 25.4534 32.5831C25.4129 32.5958 25.3724 32.6084 25.3311 32.6202C25.2915 32.632 25.2519 32.6428 25.2114 32.6537C25.1815 32.6618 25.1516 32.6691 25.1217 32.6763C25.0953 32.6835 25.0689 32.6899 25.0416 32.6953C25.0109 32.7035 24.9801 32.7098 24.9484 32.7161C24.9097 32.7252 24.8701 32.7324 24.8314 32.7397C24.776 32.7496 24.7205 32.7596 24.6651 32.7686C24.6361 32.7722 24.6062 32.7768 24.5771 32.7813C24.5675 32.7822 24.5569 32.7831 24.5464 32.7849C24.505 32.7903 24.4628 32.7949 24.4214 32.7994C24.3775 32.8039 24.3326 32.8084 24.2877 32.8112C24.016 32.8329 23.743 32.8329 23.4713 32.8112C23.4264 32.8084 23.3816 32.8039 23.3376 32.7994C23.2962 32.7949 23.254 32.7903 23.2126 32.7849C23.2021 32.7831 23.1915 32.7822 23.1819 32.7813C23.1528 32.7768 23.1229 32.7722 23.0939 32.7686C23.0385 32.7596 22.983 32.7496 22.9276 32.7397C22.8889 32.7324 22.8493 32.7252 22.8106 32.7161C22.779 32.7098 22.7482 32.7035 22.7174 32.6953C22.6901 32.6899 22.6637 32.6835 22.6373 32.6763C22.6074 32.6691 22.5775 32.6618 22.5476 32.6537C22.5071 32.6428 22.4675 32.632 22.4279 32.6202C22.3866 32.6084 22.3461 32.5958 22.3056 32.5831C22.2634 32.5695 22.2212 32.556 22.179 32.5406C22.1376 32.5261 22.0971 32.5116 22.0567 32.4962C22.018 32.4818 21.9801 32.4673 21.9423 32.4519C21.937 32.4501 21.9326 32.4483 21.9282 32.4465C21.8904 32.4311 21.8526 32.4148 21.8156 32.3985C21.7761 32.3813 21.7365 32.3641 21.6969 32.3451C21.6599 32.3279 21.6221 32.3098 21.5851 32.2917C21.5818 32.2906 21.5785 32.289 21.5755 32.2872C21.5394 32.2691 21.5051 32.251 21.4699 32.2329C21.4687 32.2329 21.4676 32.2327 21.4665 32.2322C21.4655 32.2317 21.4645 32.231 21.4637 32.2302C21.4259 32.2102 21.389 32.1894 21.352 32.1686C21.2394 32.1062 21.1285 32.0392 21.0212 31.9677C20.9816 31.9433 20.9429 31.917 20.9051 31.889C20.8726 31.8663 20.8409 31.8437 20.8101 31.8211C20.7784 31.7985 20.7467 31.7749 20.716 31.7514C20.708 31.7451 20.6992 31.7387 20.6913 31.7324C20.6623 31.7098 20.6341 31.6871 20.606 31.6645C20.5726 31.6374 20.5391 31.6102 20.5066 31.5821C20.474 31.5541 20.4415 31.526 20.4089 31.4971C20.3139 31.412 20.2207 31.3233 20.13 31.2301C20.0394 31.1369 19.9523 31.041 19.8696 30.9423C19.8424 30.9097 19.8151 30.8762 19.7878 30.8428C19.7605 30.8093 19.7342 30.7749 19.7078 30.7405C19.6814 30.7061 19.6559 30.6717 19.6303 30.6364C19.6083 30.6065 19.5872 30.5767 19.5661 30.5459C19.5591 30.5369 19.5529 30.5278 19.5468 30.5188C19.5283 30.4925 19.5107 30.4654 19.4931 30.4382C19.4623 30.393 19.4333 30.3477 19.4051 30.3016C19.384 30.2681 19.3647 30.2346 19.3444 30.2011C19.3233 30.1658 19.3022 30.1296 19.2829 30.0934C19.2573 30.05 19.2336 30.0065 19.2116 29.9622C19.1931 29.9278 19.1755 29.8934 19.1579 29.859C19.1571 29.8563 19.1553 29.8545 19.1553 29.8518C19.1368 29.8156 19.1192 29.7794 19.1025 29.7432L19.0972 29.7323C19.0805 29.697 19.0647 29.6617 19.0497 29.6264C19.0365 29.5993 19.0251 29.5712 19.0136 29.5432C18.9969 29.5042 18.9802 29.4653 18.9653 29.4255C18.9503 29.3884 18.9362 29.3513 18.9222 29.3133C18.9028 29.2617 18.8852 29.2092 18.8667 29.1567C18.8553 29.1223 18.8438 29.087 18.8333 29.0517C18.8219 29.0173 18.8113 28.9829 18.8016 28.9486C18.7875 28.8988 18.7735 28.849 18.7603 28.7992C18.7374 28.7151 18.7172 28.6291 18.6996 28.5431C18.689 28.4933 18.6793 28.4445 18.6697 28.3947C18.6547 28.3151 18.6415 28.2354 18.631 28.1558C18.6248 28.1123 18.6186 28.0689 18.6142 28.0254C18.609 27.982 18.6046 27.9395 18.601 27.896C18.5966 27.8526 18.5931 27.8082 18.5905 27.7648C18.5817 27.6345 18.5764 27.5033 18.5764 27.3729V21.9175H23.8795C24.0492 21.9175 24.219 21.9256 24.388 21.9428C24.4302 21.9465 24.4724 21.951 24.5147 21.9564C24.5569 21.9618 24.5991 21.9673 24.6413 21.9736C24.6774 21.979 24.7144 21.9845 24.7504 21.9908C24.7847 21.9962 24.8182 22.0026 24.8525 22.0098C24.8789 22.0144 24.9044 22.0198 24.9308 22.0252C24.9598 22.0306 24.9888 22.037 25.0179 22.0442C25.0548 22.0515 25.0909 22.0605 25.127 22.0696C25.156 22.0768 25.1842 22.084 25.2114 22.0913C25.2519 22.1021 25.2915 22.113 25.3311 22.1248C25.3689 22.1356 25.4058 22.1465 25.4428 22.1591C25.4508 22.1612 25.4587 22.1636 25.4665 22.1664C25.5044 22.1782 25.5404 22.1908 25.5774 22.2035C25.5793 22.2037 25.5811 22.2043 25.5827 22.2053C25.6205 22.218 25.6583 22.2315 25.6953 22.246C25.7401 22.2623 25.785 22.2795 25.8299 22.2985C25.8677 22.3139 25.9055 22.3302 25.9434 22.3465C26.2197 22.4663 26.4855 22.6105 26.7378 22.7773C26.8042 22.8207 26.8693 22.8668 26.9341 22.9137C26.967 22.9376 26.9995 22.9622 27.0319 22.9868C27.0644 23.0115 27.0967 23.0367 27.1287 23.0624C27.1635 23.0902 27.1984 23.1178 27.2325 23.1465C27.2759 23.1829 27.3186 23.2207 27.361 23.2587C27.403 23.2963 27.4442 23.3346 27.4848 23.3736C27.5177 23.4049 27.5504 23.4365 27.5827 23.4689C27.6125 23.4988 27.642 23.5291 27.6712 23.5597C27.6997 23.5897 27.7275 23.6202 27.7552 23.6507C27.8079 23.7087 27.8594 23.768 27.9097 23.8284C27.9313 23.8544 27.9535 23.8802 27.9746 23.9065C28.0069 23.9468 28.0381 23.988 28.0692 24.0292C28.0858 24.0511 28.1023 24.073 28.1184 24.095C28.1504 24.1387 28.1817 24.1828 28.2125 24.2273C28.2238 24.2438 28.2347 24.2605 28.2459 24.2771C28.3472 24.4281 28.4411 24.5843 28.5271 24.7451C28.5385 24.7663 28.55 24.7874 28.561 24.8087C28.5842 24.8534 28.6068 24.8986 28.6287 24.9441C28.6436 24.9751 28.6581 25.0062 28.6724 25.0373C28.6905 25.0765 28.7086 25.1157 28.7258 25.1554C28.7568 25.2275 28.787 25.2998 28.8149 25.3729V25.3738C28.8307 25.4145 28.8456 25.4561 28.8606 25.4977C28.8756 25.5394 28.8896 25.581 28.9037 25.6235C28.9178 25.6652 28.931 25.7068 28.9433 25.7493C28.9442 25.7512 28.9451 25.7521 28.9451 25.7539C28.9574 25.7955 28.9697 25.8371 28.9811 25.8797C28.9935 25.9231 29.0049 25.9665 29.0154 26.01C29.0234 26.0399 29.0304 26.0697 29.0374 26.0996C29.0453 26.1331 29.0524 26.1666 29.0594 26.2009C29.0656 26.2299 29.0718 26.2589 29.077 26.2878C29.0832 26.3177 29.0893 26.3467 29.0937 26.3765C29.1008 26.4127 29.1069 26.4489 29.1122 26.4851C29.1184 26.5195 29.1237 26.5548 29.1281 26.5892C29.1342 26.6326 29.1395 26.6752 29.1448 26.7186C29.15 26.7621 29.1544 26.8055 29.158 26.8489C29.187 27.1533 29.1905 27.4598 29.1685 27.7648Z" fill="white"/>
<path d="M55.8467 19.1765H58.2737L59.5782 19.1608C61.7776 19.1608 63.2945 20.2063 63.2945 22.3598C63.2945 23.0932 62.885 23.7798 62.2024 24.3259C62.6681 24.558 63.0572 24.9258 63.3215 25.3836C63.5858 25.8413 63.7135 26.3688 63.6889 26.9006C63.6889 28.9605 62.2175 30.0995 60.0787 30.0995H55.8467L55.8467 19.1765ZM58.2737 21.1894V23.4364H59.472C60.2153 23.4364 60.731 23.0307 60.731 22.3129C60.731 21.5952 60.2001 21.1739 59.4113 21.1894H58.2737ZM58.2737 25.5118V27.8212H59.8057C60.6096 27.8212 61.1102 27.3532 61.1102 26.6666C61.1102 25.9487 60.5793 25.4962 59.7299 25.5118H58.2737Z" fill="white"/>
<path d="M64.8877 19.1765H67.3147V30.0995H64.8877V19.1765Z" fill="white"/>
<path d="M72.2596 27.946C73.1394 27.9618 73.5945 27.4467 73.5945 26.4169V22.2974H76.0215V30.0995H73.731L73.64 29.1164C73.4103 29.4832 73.0932 29.7833 72.7188 29.9882C72.3444 30.1931 71.9252 30.2959 71.5012 30.2868C69.6658 30.2868 68.7101 29.1633 68.7253 26.7603V22.2974H71.1523V26.2921C71.1523 27.4625 71.5619 27.9149 72.2596 27.946Z" fill="white"/>
<path d="M80.5117 19.1765H82.7415L85.8663 27.6653L88.991 19.1765H91.2208L87.0039 30.0995H84.7438L80.5117 19.1765Z" fill="white"/>
<path d="M91.3271 27.8993C91.3271 26.2452 92.4496 25.387 94.3912 25.387H96.166C96.0295 24.4039 95.5896 23.8577 94.7249 23.8577C94.4161 23.8423 94.1094 23.9178 93.8407 24.0754C93.5721 24.2329 93.3526 24.4659 93.2081 24.7472L91.5243 24.1386C91.9642 23.1399 92.935 22.1101 94.7553 22.1101C97.0154 22.1101 98.1379 23.4052 98.1379 25.7927V30.0995H96.2722L96.257 29.2569C95.8323 29.9278 95.1648 30.2868 94.194 30.2868C92.3738 30.2868 91.3271 29.4285 91.3271 27.8993ZM96.2115 26.9006H96.2266V26.8537H95.0283C93.6935 26.8537 93.2536 27.2283 93.2536 27.8368C93.2536 28.3519 93.7086 28.6482 94.4822 28.6482C94.9354 28.6476 95.3704 28.4643 95.6937 28.1376C96.017 27.8109 96.2029 27.3668 96.2115 26.9006Z" fill="white"/>
<path d="M99.7305 19.1765H101.733L101.718 30.0995H99.7153L99.7305 19.1765Z" fill="white"/>
<path d="M103.432 19.8474C103.432 19.6128 103.5 19.3835 103.626 19.1885C103.753 18.9935 103.933 18.8415 104.144 18.7517C104.354 18.662 104.586 18.6385 104.81 18.6842C105.034 18.73 105.239 18.8429 105.4 19.0088C105.561 19.1747 105.671 19.386 105.716 19.616C105.76 19.8461 105.737 20.0845 105.65 20.3012C105.563 20.5179 105.415 20.7032 105.225 20.8335C105.036 20.9638 104.813 21.0333 104.585 21.0333C104.281 21.0282 103.99 20.9016 103.775 20.6803C103.56 20.459 103.437 20.1603 103.432 19.8474ZM103.584 22.2974H105.586V30.0995H103.584V22.2974Z" fill="white"/>
<path d="M107.027 26.1984C107.027 23.7017 108.362 22.1101 110.455 22.1101C110.906 22.0921 111.354 22.1966 111.753 22.413C112.153 22.6294 112.49 22.95 112.73 23.3428V19.1765H114.733V30.0995H112.836L112.761 29.0228C112.519 29.4241 112.178 29.7525 111.773 29.9745C111.369 30.1965 110.914 30.3042 110.455 30.2868C108.362 30.2868 107.027 28.6951 107.027 26.1984ZM112.73 26.4324V25.9644C112.639 24.794 111.942 24.0138 110.956 24.0138C109.879 24.0138 109.105 24.9188 109.105 26.1984C109.105 27.478 109.894 28.3986 110.971 28.3986C111.942 28.3986 112.639 27.6028 112.73 26.4324V26.4324Z" fill="white"/>
<path d="M116.189 27.8993C116.189 26.2452 117.311 25.387 119.253 25.387H121.028C120.891 24.4039 120.451 23.8577 119.587 23.8577C119.278 23.8423 118.971 23.9178 118.703 24.0754C118.434 24.2329 118.214 24.4659 118.07 24.7472L116.386 24.1386C116.826 23.1399 117.797 22.1101 119.617 22.1101C121.877 22.1101 123 23.4052 123 25.7927V30.0995H121.134L121.119 29.2569C120.694 29.9278 120.027 30.2868 119.056 30.2868C117.236 30.2868 116.189 29.4285 116.189 27.8993ZM121.073 26.9006H121.088V26.8537H119.89C118.555 26.8537 118.115 27.2283 118.115 27.8368C118.115 28.3519 118.57 28.6482 119.344 28.6482C119.797 28.6476 120.232 28.4643 120.555 28.1376C120.879 27.8109 121.065 27.3668 121.073 26.9006Z" fill="white"/>
</g>
<defs>
<clipPath id="clip0_80_69">
<rect width="123" height="52" fill="white"/>
</clipPath>
</defs>
</svg>
