<svg width="22" height="24" viewBox="0 0 22 24" fill="none" xmlns="http://www.w3.org/2000/svg">
<path d="M0.638672 1.63439C0.638672 1.23543 0.689065 0.92866 0.794682 0.712405L12.2483 11.9842L0.953129 23.2793C0.76983 23.0469 0.638672 22.686 0.638672 22.2394V1.63439Z" stroke="#D9D9D9" stroke-width="0.5"/>
<path d="M12.666 11.9936L16.255 8.40461L20.7764 10.9883C21.3839 11.3354 21.6294 11.7556 21.6294 12.1231C21.6294 12.4902 21.3846 12.9097 20.7789 13.2565L16.2837 15.6839L12.666 12.0662V11.9936Z" stroke="#D9D9D9" stroke-width="0.5"/>
<mask id="path-3-inside-1_93_280" fill="white">
<path d="M16.332 15.8993L12.4161 11.9834L0.761719 23.6378C1.22789 24.104 1.88054 24.104 2.71966 23.731L16.332 15.8993Z"/>
</mask>
<path d="M12.4161 11.9834L12.7697 11.6298L12.4161 11.2763L12.0626 11.6298L12.4161 11.9834ZM0.761719 23.6378L0.408165 23.2842L0.054612 23.6378L0.408165 23.9914L0.761719 23.6378ZM2.71966 23.731L2.92273 24.1879L2.94648 24.1774L2.96901 24.1644L2.71966 23.731ZM16.6856 15.5457L12.7697 11.6298L12.0626 12.337L15.9784 16.2528L16.6856 15.5457ZM12.0626 11.6298L0.408165 23.2842L1.11527 23.9914L12.7697 12.337L12.0626 11.6298ZM0.408165 23.9914C0.734128 24.3173 1.13531 24.4828 1.58299 24.4988C2.01375 24.5141 2.46561 24.3911 2.92273 24.1879L2.51659 23.2741C2.13459 23.4439 1.84057 23.5073 1.61868 23.4994C1.41372 23.4921 1.25549 23.4245 1.11527 23.2842L0.408165 23.9914ZM2.96901 24.1644L16.5813 16.3327L16.0827 15.4659L2.47031 23.2976L2.96901 24.1644Z" fill="#D9D9D9" mask="url(#path-3-inside-1_93_280)"/>
<path d="M2.59719 0.546902C2.59754 0.547097 2.5979 0.547293 2.59825 0.547488L15.9232 8.12267L12.4154 11.6305L1.13364 0.438984C1.28014 0.343132 1.44124 0.287971 1.61865 0.275299C1.88286 0.256427 2.20696 0.330299 2.59719 0.546902Z" stroke="#D9D9D9" stroke-width="0.5"/>
<g opacity="0.2">
<mask id="path-6-inside-2_93_280" fill="white">
<path d="M16.2388 15.8057L2.71966 23.4509C1.97378 23.9171 1.32113 23.8239 0.854954 23.4509L0.761719 23.5442L0.854954 23.6374C1.32113 24.0104 1.97378 24.1036 2.71966 23.6374L16.2388 15.8057Z"/>
</mask>
<path d="M16.2388 15.8057L2.71966 23.4509C1.97378 23.9171 1.32113 23.8239 0.854954 23.4509L0.761719 23.5442L0.854954 23.6374C1.32113 24.0104 1.97378 24.1036 2.71966 23.6374L16.2388 15.8057Z" fill="#D9D9D9"/>
<path d="M16.2388 15.8057L16.4894 16.2383L15.9926 15.3704L16.2388 15.8057ZM2.71966 23.4509L2.47353 23.0157L2.46397 23.0211L2.45466 23.027L2.71966 23.4509ZM0.854954 23.4509L1.1673 23.0605L0.817843 22.7809L0.501398 23.0974L0.854954 23.4509ZM0.761719 23.5442L0.408162 23.1906L0.054612 23.5442L0.408169 23.8977L0.761719 23.5442ZM0.854954 23.6374L0.501404 23.991L0.520984 24.0106L0.542607 24.0279L0.854954 23.6374ZM2.71966 23.6374L2.46902 23.2048L2.46177 23.209L2.45466 23.2134L2.71966 23.6374ZM15.9926 15.3704L2.47353 23.0157L2.96579 23.8862L16.4849 16.2409L15.9926 15.3704ZM2.45466 23.027C2.15097 23.2168 1.89877 23.2733 1.70092 23.266C1.50401 23.2587 1.32539 23.187 1.1673 23.0605L0.542607 23.8414C0.850694 24.0879 1.23149 24.2493 1.66391 24.2653C2.0954 24.2813 2.54246 24.1513 2.98466 23.8749L2.45466 23.027ZM0.501398 23.0974L0.408162 23.1906L1.11528 23.8977L1.20851 23.8045L0.501398 23.0974ZM0.408169 23.8977L0.501404 23.991L1.2085 23.2839L1.11527 23.1906L0.408169 23.8977ZM0.542607 24.0279C0.850694 24.2743 1.23149 24.4357 1.66391 24.4517C2.0954 24.4677 2.54246 24.3378 2.98466 24.0614L2.45466 23.2134C2.15097 23.4032 1.89877 23.4598 1.70092 23.4524C1.50401 23.4451 1.32539 23.3735 1.1673 23.247L0.542607 24.0279ZM2.97029 24.0701L16.4894 16.2383L15.9881 15.373L2.46902 23.2048L2.97029 24.0701Z" fill="#D9D9D9" mask="url(#path-6-inside-2_93_280)"/>
</g>
<g opacity="0.12">
<mask id="path-8-inside-3_93_280" fill="white">
<path d="M0.761612 23.4513C0.481907 23.1716 0.388672 22.7054 0.388672 22.146V22.2393C0.388672 22.7987 0.575142 23.2649 0.854848 23.5446V23.4513H0.761612ZM20.9004 13.1955L16.2387 15.806L16.3319 15.8993L20.9004 13.2887C21.5531 12.9158 21.8328 12.4496 21.8328 11.9834C21.8328 12.4496 21.4598 12.8225 20.9004 13.1955Z"/>
</mask>
<path d="M0.761612 23.4513C0.481907 23.1716 0.388672 22.7054 0.388672 22.146V22.2393C0.388672 22.7987 0.575142 23.2649 0.854848 23.5446V23.4513H0.761612ZM20.9004 13.1955L16.2387 15.806L16.3319 15.8993L20.9004 13.2887C21.5531 12.9158 21.8328 12.4496 21.8328 11.9834C21.8328 12.4496 21.4598 12.8225 20.9004 13.1955Z" fill="#D9D9D9"/>
<path d="M0.761612 23.4513L0.408059 23.8049L0.554506 23.9513H0.761612V23.4513ZM0.854848 23.5446L0.501295 23.8981L1.35485 24.7517V23.5446H0.854848ZM0.854848 23.4513H1.35485V22.9513H0.854848V23.4513ZM16.2387 15.806L15.9944 15.3698L15.418 15.6925L15.8851 16.1596L16.2387 15.806ZM16.3319 15.8993L15.9783 16.2528L16.2484 16.5229L16.58 16.3334L16.3319 15.8993ZM20.9004 13.2887L20.6523 12.8546L20.9004 13.2887ZM1.11517 23.0978C0.986822 22.9694 0.888672 22.6862 0.888672 22.146H-0.111328C-0.111328 22.7247 -0.0230083 23.3738 0.408059 23.8049L1.11517 23.0978ZM-0.111328 22.146V22.2393H0.888672V22.146H-0.111328ZM-0.111328 22.2393C-0.111328 22.9013 0.108536 23.5054 0.501295 23.8981L1.2084 23.191C1.04175 23.0244 0.888672 22.6961 0.888672 22.2393H-0.111328ZM1.35485 23.5446V23.4513H0.354848V23.5446H1.35485ZM0.854848 22.9513H0.761612V23.9513H0.854848V22.9513ZM20.6561 12.7592L15.9944 15.3698L16.483 16.2423L21.1447 13.6317L20.6561 12.7592ZM15.8851 16.1596L15.9783 16.2528L16.6854 15.5457L16.5922 15.4525L15.8851 16.1596ZM16.58 16.3334L21.1485 13.7228L20.6523 12.8546L16.0838 15.4652L16.58 16.3334ZM21.1485 13.7228C21.9041 13.291 22.3328 12.6825 22.3328 11.9834H21.3328C21.3328 12.2166 21.202 12.5405 20.6523 12.8546L21.1485 13.7228ZM21.3328 11.9834C21.3328 12.1615 21.1897 12.4017 20.6231 12.7794L21.1778 13.6115C21.7299 13.2434 22.3328 12.7377 22.3328 11.9834H21.3328Z" fill="#D9D9D9" mask="url(#path-8-inside-3_93_280)"/>
</g>
<g opacity="0.25">
<mask id="path-10-inside-4_93_280" fill="white">
<path d="M2.71955 0.422178L20.9004 10.7713C21.4598 11.1442 21.8328 11.5172 21.8328 11.9833C21.8328 11.5172 21.5531 11.051 20.9004 10.6781L2.71955 0.328943C1.41426 -0.416939 0.388672 0.142472 0.388672 1.63423V1.72747C0.388672 0.328943 1.41426 -0.323704 2.71955 0.422178Z"/>
</mask>
<path d="M2.71955 0.422178L20.9004 10.7713C21.4598 11.1442 21.8328 11.5172 21.8328 11.9833C21.8328 11.5172 21.5531 11.051 20.9004 10.6781L2.71955 0.328943C1.41426 -0.416939 0.388672 0.142472 0.388672 1.63423V1.72747C0.388672 0.328943 1.41426 -0.323704 2.71955 0.422178Z" fill="#D9D9D9"/>
<path d="M2.71955 0.422178L2.47148 0.8563L2.4722 0.85671L2.71955 0.422178ZM20.9004 10.7713L21.1778 10.3553L21.1631 10.3455L21.1478 10.3368L20.9004 10.7713ZM20.9004 10.6781L21.1485 10.2439L21.1478 10.2435L20.9004 10.6781ZM2.71955 0.328943L2.47148 0.763065L2.4722 0.763475L2.71955 0.328943ZM2.4722 0.85671L20.6531 11.2058L21.1478 10.3368L2.9669 -0.0123547L2.4722 0.85671ZM20.6231 11.1873C21.1897 11.5651 21.3328 11.8053 21.3328 11.9833H22.3328C22.3328 11.2291 21.7299 10.7234 21.1778 10.3553L20.6231 11.1873ZM22.3328 11.9833C22.3328 11.2842 21.9041 10.6757 21.1485 10.2439L20.6523 11.1122C21.202 11.4263 21.3328 11.7501 21.3328 11.9833H22.3328ZM21.1478 10.2435L2.9669 -0.10559L2.4722 0.763475L20.6531 11.1126L21.1478 10.2435ZM2.96762 -0.105179C2.23361 -0.524615 1.45388 -0.645756 0.821806 -0.294607C0.183714 0.0598883 -0.111328 0.78741 -0.111328 1.63423H0.888672C0.888672 0.989297 1.10642 0.691231 1.30745 0.579551C1.5145 0.464525 1.9002 0.436619 2.47148 0.763064L2.96762 -0.105179ZM-0.111328 1.63423V1.72747H0.888672V1.63423H-0.111328ZM0.888672 1.72747C0.888672 1.14098 1.09955 0.829149 1.31656 0.70256C1.53098 0.577484 1.91497 0.538294 2.47148 0.856299L2.96762 -0.0119439C2.21884 -0.43982 1.43739 -0.525627 0.812692 -0.161219C0.190585 0.201677 -0.111328 0.915431 -0.111328 1.72747H0.888672Z" fill="#D9D9D9" mask="url(#path-10-inside-4_93_280)"/>
</g>
</svg>
